# xmcd
#
# Track frame offsets:
#	150
#	19421
#	49141
#	65384
#	82271
#	96050
#	124252
#	150292
#	170280
#	190882
#	207404
#	227664
#	247381
#	264590
#	282321
#	308576
#	322880
#	341270
#
# Disc length: 4747 seconds
#
# Revision: 1
# Processed by: cddbd v1.5.2PL0 Copyright (c) Steve Scherf et al.
# Submitted via: audiograbber 1.83.01
#
DISCID=fc128912
DTITLE=Varios Artists - Sax and Sex 2
DYEAR=1900
DGENRE=Instrumental
TTITLE0=I Will Always Love You
TTITLE1=Summertime
TTITLE2=Without You
TTITLE3=Candle in the Wind
TTITLE4=The Winsome Night
TTITLE5=End of the Road
TTITLE6=Desafinado
TTITLE7=Right Here Waiting
TTITLE8=Tears in Heaven
TTITLE9=Bloody Romance
TTITLE10=Heaven Knows
TTITLE11=It Might Be You
TTITLE12=Love Me
TTITLE13=The Girl from Ipanema
TTITLE14=The Curve Moon
TTITLE15=Can`t Cry Hard Enough
TTITLE16=The Night at Prairie
TTITLE17=Strait from the Heart
EXTD=
EXTT0=
EXTT1=
EXTT2=
EXTT3=
EXTT4=
EXTT5=
EXTT6=
EXTT7=
EXTT8=
EXTT9=
EXTT10=
EXTT11=
EXTT12=
EXTT13=
EXTT14=
EXTT15=
EXTT16=
EXTT17=
PLAYORDER=
